<?xml version="1.0" standalone="no"?>
<!DOCTYPE svg PUBLIC "-//W3C//DTD SVG 20010904//EN"
 "http://www.w3.org/TR/2001/REC-SVG-20010904/DTD/svg10.dtd">
<svg version="1.0" xmlns="http://www.w3.org/2000/svg"
 width="181.000000pt" height="218.000000pt" viewBox="0 0 181.000000 218.000000"
 preserveAspectRatio="xMidYMid meet">

<g transform="translate(0.000000,218.000000) scale(0.100000,-0.100000)"
fill="#4285F4" stroke="none">
<path d="M817 2076 c-76 -28 -151 -106 -179 -184 -10 -28 -13 -135 -13 -442 0
-391 1 -407 21 -451 30 -64 79 -116 138 -147 41 -21 65 -26 126 -26 90 -1 148
22 207 81 88 88 95 134 91 591 -3 348 -4 369 -24 413 -28 60 -76 114 -132 146
-55 32 -174 42 -235 19z"/>
<path d="M1405 1063 c-34 -220 -178 -385 -380 -438 -141 -36 -310 3 -421 99
l-41 35 -67 -68 -68 -68 54 -43 c71 -57 196 -116 288 -136 43 -10 122 -17 185
-17 94 -1 120 3 183 25 109 39 178 84 269 174 64 65 89 98 122 165 44 93 71
189 71 262 l0 47 -95 0 -94 0 -6 -37z"/>
</g>
</svg>
